<svg xmlns="http://www.w3.org/2000/svg" width="78.014" height="38.791" viewBox="0 0 78.014 38.791">
  <g id="logo" transform="translate(0.001)">
    <path id="Path_121" data-name="Path 121" d="M149.335,9.911c1.937.466,2.276,1.716,2.24,3.223q-.05,2.078,0,4.158c.024.929-.389,1.267-1.293,1.257-3.4-.038-3.023.315-3.034-2.912,0-.714.009-1.428,0-2.142-.027-1.62-.651-2.31-2.274-2.366-1.55-.053-3.1-.011-4.755-.011v-4c2,0,4-.022,6,.009.994.016,1.86-.169,1.852-1.343s-.873-1.518-1.912-1.519q-4.8,0-9.6,0A4.97,4.97,0,0,0,131.8,9.768c.232,2.944,1.742,4.378,4.7,4.458a8.846,8.846,0,0,1,1.51.036c.317.065.816.356.834.578a19.934,19.934,0,0,1-.007,3.132c-.015.2-.465.5-.741.535-5.135.613-9.232-1.653-10.411-6.583-1.747-7.306,3.455-11.532,9.2-11.834,3.484-.183,6.986-.036,10.48-.033,2.565,0,4.355,1.222,5.008,3.407a5.345,5.345,0,0,1-2.29,5.911c-.172.111-.334.237-.752.535" transform="translate(-95.151)" fill="#fff"/>
    <path id="Path_122" data-name="Path 122" d="M28.372,5.341V19.516H24.109V1.566c.53-.04,1.024-.11,1.518-.111q6-.013,11.99,0c3.05.006,4.3,1.252,4.3,4.282,0,4.53,0,9.061,0,13.862-1.385,0-2.709.067-4.013-.059-.248-.024-.6-.81-.6-1.248-.049-3.567-.025-7.136-.029-10.7,0-2.1-.144-2.243-2.2-2.244-2.175,0-4.35,0-6.7,0" transform="translate(-18.015 -1.082)" fill="#fff"/>
    <path id="Path_123" data-name="Path 123" d="M247.5,9.555a8.97,8.97,0,0,1-8.568,9.487A9.076,9.076,0,0,1,229.8,10.33,9.334,9.334,0,0,1,238.646.244c4.637-.169,8.629,4.029,8.855,9.31m-4.871.007a18.345,18.345,0,0,0-.825-3.1,3.243,3.243,0,0,0-3.19-2.043A3.426,3.426,0,0,0,235.33,6.55a7.134,7.134,0,0,0,.215,6.194,3.371,3.371,0,0,0,3.24,2,3.231,3.231,0,0,0,3.079-2.206,26.343,26.343,0,0,0,.766-2.977" transform="translate(-171.694 -0.18)" fill="#fff"/>
    <path id="Path_124" data-name="Path 124" d="M173.183,108.164h11.47v4.087h-6.435v2.879h6.425v4.238a13.526,13.526,0,0,1-1.423.147q-8.328.016-16.658,0a4.582,4.582,0,0,1-4.784-4.744c-.017-2.173,0-4.345,0-6.6h4.536c0,1.5-.013,2.957,0,4.411.021,1.821.327,2.118,2.117,2.121,1.507,0,3.014,0,4.752,0Z" transform="translate(-120.874 -80.82)" fill="#fff"/>
    <path id="Path_125" data-name="Path 125" d="M207.1,84.184v-4.2h20.171c2.867,0,4.606,1.221,5.293,3.71.636,2.3-.289,4.39-2.587,5.842-.105.066-.206.14-.54.369,2.183.439,2.405,1.876,2.336,3.544-.067,1.586-.014,3.178-.014,4.891h-4.284c0-1.7.014-3.287,0-4.877s-.722-2.285-2.324-2.3c-1.545-.016-3.09,0-4.711,0V87.039c2.005,0,3.965-.018,5.925.007,1.086.014,2.178-.056,2.155-1.456s-1.172-1.407-2.219-1.406q-8.769,0-17.539,0H207.1" transform="translate(-154.741 -59.762)" fill="#fff"/>
    <path id="Path_126" data-name="Path 126" d="M117.282,98.393c-1.829,0-3.435.355-4.771-.093-1.566-.524-1.841-2.307-1.89-3.823-.093-2.851-.088-5.709,0-8.561.04-1.347-.438-1.841-1.751-1.7a19.934,19.934,0,0,1-2.088.012V98.356h-4.654V79.983h7.913c3.586,0,5.248,1.632,5.31,5.286.04,2.35.046,4.7,0,7.051-.044,2.135.045,4.208,1.937,6.073" transform="translate(-76.308 -59.764)" fill="#fff"/>
    <path id="Path_127" data-name="Path 127" d="M11.6,93.77V98.4c-2.952.144-5.814.424-8.249-1.61C.084,94.06-.476,90.474.324,86.621c.757-3.647,3.256-5.768,6.833-6.611a10.075,10.075,0,0,1,2.262-.082c4.753-.006,9.506,0,14.378,0v4.157c-.448.029-.932.087-1.417.088-4.166.007-8.332.052-12.5-.008-4.518-.064-6.105,4.172-4.559,7.529a3.813,3.813,0,0,0,3.522,2.07c.875.053,1.757.01,2.748.01" transform="translate(0 -59.705)" fill="#fff"/>
    <path id="Path_128" data-name="Path 128" d="M62.323,109.335V113.1H56.183v2.74h6.1v4.421H51.472V109.335Z" transform="translate(-38.459 -81.695)" fill="#fff"/>
    <rect id="Rectangle_728" data-name="Rectangle 728" width="4.71" height="17.978" transform="translate(26.022 0.461)" fill="#fff"/>
    <rect id="Rectangle_729" data-name="Rectangle 729" width="4.118" height="11.195" transform="translate(12.666 7.242)" fill="#fff"/>
    <path id="Path_129" data-name="Path 129" d="M170.826,80.28c.032.3.078.542.08.784.008,1.044,0,2.088,0,3.245H160.217V80.28Z" transform="translate(-119.714 -59.984)" fill="#fff"/>
  </g>
</svg>
