<svg xmlns="http://www.w3.org/2000/svg" width="13.524" height="12" viewBox="0 0 13.524 12">
  <path id="barcode-read-regular" d="M1.315,1.1a.2.2,0,0,0-.188.188V3.17a.55.55,0,0,1-.563.563A.55.55,0,0,1,0,3.17V1.292A1.31,1.31,0,0,1,1.315,0H3.193A.559.559,0,0,1,3.757.54a.55.55,0,0,1-.563.563ZM3.381,3.546V8.429a.549.549,0,0,1-.563.563.549.549,0,0,1-.563-.563V3.546a.563.563,0,1,1,1.127,0Zm.751-.188a.376.376,0,1,1,.751,0V8.617a.376.376,0,0,1-.751,0Zm6.386,0a.376.376,0,0,1,.751,0V8.617a.376.376,0,0,1-.751,0Zm-4.884.188a.563.563,0,1,1,1.127,0V8.429a.563.563,0,0,1-1.127,0Zm4.132,0V8.429a.563.563,0,0,1-1.127,0V3.546a.563.563,0,1,1,1.127,0ZM12.4,1.292a.2.2,0,0,0-.188-.188H10.331A.55.55,0,0,1,9.767.54.559.559,0,0,1,10.331,0h1.878a1.311,1.311,0,0,1,1.315,1.294V3.17a.563.563,0,1,1-1.127,0Zm-9.2,9.579a.576.576,0,0,1,.563.563A.549.549,0,0,1,3.193,12H1.315A1.3,1.3,0,0,1,0,10.683V8.8a.577.577,0,0,1,.563-.563.577.577,0,0,1,.563.563v1.878a.176.176,0,0,0,.188.188ZM12.4,8.8a.563.563,0,1,1,1.127,0v1.878A1.3,1.3,0,0,1,12.209,12H10.331a.549.549,0,0,1-.563-.563.576.576,0,0,1,.563-.563h1.878a.176.176,0,0,0,.188-.188Z" transform="translate(0 0.002)" fill="#0073df"/>
</svg>
